#!OML:ASF F:\twosubjects\two\Thursday\Session 1\Rory.ASF
:FULLY-SPECIFIED
:DEGREES
372
root 12.2133 16.801 -2.24174 -25.4703 -78.6532 35.84
lowerback 24.5341 2.22176 -1.39147
upperback 11.8463 1.5627 -1.94209
thorax -0.569543 0.417076 -1.67329
lowerneck -1.58706 15.9648 11.9199
upperneck -11.2746 20.2845 -28.6717
head 1.519 10.5653 -9.66068
rclavicle 2.42517e-014 1.07344e-014
rhumerus -85.1744 -27.2975 -20.3406
rradius 11.9729
rwrist 94.4572
rhand -24.924 29.7799
rfingers 7.12502
rthumb 1.58493 -0.193914
lclavicle 2.42517e-014 1.07344e-014
lhumerus -70.2891 1.4574 66.1205
lradius 15.9809
lwrist -49.7217
lhand 8.54033 28.9905
lfingers 7.12502
lthumb 33.7406 55.8315
rfemur -32.768 3.94779 -7.15282
rtibia 49.4672
rfoot -16.0544 -15.2179
rtoes -32.3054
lfemur -34.5144 7.15333 -12.1637
ltibia 51.183
lfoot -19.3135 9.8742
ltoes -13.3745
373
root 12.2151 16.7582 -2.34447 -24.743 -78.3185 35.055
lowerback 24.5531 2.17989 -1.0724
upperback 11.7584 1.57928 -2.13699
thorax -0.659085 0.449767 -2.07017
lowerneck -1.59805 15.8878 11.9817
upperneck -11.1532 20.1988 -28.5543
head 1.52869 10.511 -9.641
rclavicle -3.49861e-014 3.33958e-014
rhumerus -85.262 -27.4102 -20.5388
rradius 12.0579
rwrist 94.1936
rhand -25.2923 28.3388
rfingers 7.12502
rthumb 1.22924 -1.63738
lclavicle -3.49861e-014 3.33958e-014
lhumerus -70.2923 1.40027 64.8945
lradius 15.7496
lwrist -50.2928
lhand 8.4521 28.2151
lfingers 7.12502
lthumb 33.6568 55.0744
rfemur -32.1511 4.58059 -7.24027
rtibia 49.128
rfoot -17.1658 -14.9674
rtoes -33.9541
lfemur -34.6843 6.8523 -11.7937
ltibia 51.2675
lfoot -18.748 10.1215
ltoes -15.2862
374
root 12.2254 16.7078 -2.4555 -23.7232 -77.7841 34.0585
lowerback 24.6452 2.08869 -0.88601
upperback 11.6207 1.50862 -2.30011
thorax -0.846613 0.4337 -2.33886
lowerneck -1.64642 15.8137 12.3262
upperneck -10.9358 20.1394 -28.646
head 1.63909 10.4572 -9.71275
rclavicle 4.77083e-015 7.95139e-015
rhumerus -85.1234 -27.5296 -20.8892
rradius 12.0596
rwrist 93.5852
rhand -25.2017 28.5769
rfingers 7.12502
rthumb 1.3168 -1.39883
lclavicle 4.77083e-015 7.95139e-015
lhumerus -70.2381 1.1655 64.1521
lradius 15.4178
lwrist -50.5696
lhand -0.180373 45.3445
lfingers 7.12502
lthumb 25.4176 73.67
rfemur -31.7915 4.86193 -7.22066
rtibia 49.0068
rfoot -18.485 -14.8242
rtoes -34.6128
lfemur -35.0427 6.48744 -11.52
ltibia 51.3203
lfoot -17.7324 10.6843
ltoes -20.0836
375
root 12.2286 16.6745 -2.56922 -22.3526 -77.4952 32.6233
lowerback 24.7777 2.05946 -0.723137
upperback 11.5436 1.5098 -2.32104
thorax -0.989407 0.444174 -2.45875
lowerneck -1.75799 15.7818 12.5303
upperneck -10.8547 20.1045 -28.7982
head 1.71923 10.4234 -9.78008
rclavicle 3.18055e-015 -2.0276e-014
rhumerus -84.8535 -27.7204 -20.9732
rradius 12.0978
rwrist 93.1342
rhand -24.6626 29.2673
rfingers 7.12502
rthumb 1.8374 -0.704581
lclavicle 3.18055e-015 -2.0276e-014
lhumerus -70.1796 0.661844 64.3902
lradius 15.1865
lwrist -49.8044
lhand 5.64903 30.6549
lfingers 7.12502
lthumb 30.9888 58.0585
rfemur -31.6064 5.28205 -6.86593
rtibia 49.1004
rfoot -19.989 -14.7065
rtoes -34.0241
lfemur -35.2134 6.101 -11.0203
ltibia 51.3332
lfoot -16.793 11.5714
ltoes -25.4646
376
root 12.2269 16.6581 -2.68484 -20.3644 -77.7276 30.534
lowerback 24.8047 2.17368 -0.44497
upperback 11.5646 1.71859 -2.19657
thorax -0.965601 0.554052 -2.53466
lowerneck -2.03972 15.7951 12.3826
upperneck -10.8501 20.0991 -28.8268
head 1.75465 10.404 -9.74328
rclavicle 1.11319e-014 -3.26007e-014
rhumerus -84.759 -28.2338 -20.1997
rradius 12.0813
rwrist 93.4118
rhand -24.5735 28.1505
rfingers 7.12502
rthumb 1.92352 -1.8206
lclavicle 1.11319e-014 -3.26007e-014
lhumerus -69.9142 0.880787 63.7735
lradius 14.7538
lwrist -50.1801
lhand 4.4612 30.8634
lfingers 7.12502
lthumb 29.8559 58.4766
rfemur -31.7832 6.11369 -6.04887
rtibia 49.436
rfoot -20.5992 -15.2513
rtoes -34.4315
lfemur -35.1916 5.95413 -10.0408
ltibia 51.2881
lfoot -16.5323 11.8261
ltoes -25.3687
377
root 12.2356 16.6442 -2.79986 -18.8379 -77.941 28.8682
lowerback 24.8829 2.301 -0.290842
upperback 11.6709 1.90634 -2.08328
thorax -0.875521 0.645897 -2.54722
lowerneck -2.1015 15.7979 12.2793
upperneck -11.1949 20.0262 -29.0671
head 1.67698 10.3901 -9.82296
rclavicle 5.00937e-014 2.38542e-015
rhumerus -84.4205 -28.8886 -19.6262
rradius 12.0653
rwrist 93.5524
rhand -24.5879 27.6916
rfingers 7.12502
rthumb 1.90955 -2.27959
lclavicle 5.00937e-014 2.38542e-015
lhumerus -69.5573 1.43942 62.7656
lradius 14.3293
lwrist -51.662
lhand 8.12678 28.6921
lfingers 7.12502
lthumb 33.3476 55.6183
rfemur -32.1997 6.56236 -5.20955
rtibia 50.0291
rfoot -20.5005 -15.8959
rtoes -35.0842
lfemur -35.1108 5.80211 -9.0856
ltibia 51.1709
lfoot -16.8136 11.4417
ltoes -20.8251
378
root 12.2547 16.6309 -2.90178 -19.2771 -77.7862 29.1556
lowerback 25.1907 2.31872 -0.323321
upperback 11.7597 1.90056 -2.1095
thorax -0.923497 0.637187 -2.5641
lowerneck -2.1604 15.8058 12.0277
upperneck -11.51 19.9612 -29.3073
head 1.59192 10.3841 -9.88003
rclavicle -3.97569e-016 -1.23246e-014
rhumerus -83.7292 -29.4017 -19.4373
rradius 12.1154
rwrist 93.402
rhand -24.7291 27.9169
rfingers 7.12502
rthumb 1.77323 -2.05543
lclavicle -3.97569e-016 -1.23246e-014
lhumerus -69.352 1.53801 62.775
lradius 14.144
lwrist -52.3497
lhand 5.37241 29.875
lfingers 7.12502
lthumb 30.7251 57.3285
rfemur -32.6004 6.37854 -4.93233
rtibia 50.8119
rfoot -20.6685 -15.8656
rtoes -33.3545
lfemur -34.9466 5.23104 -8.69944
ltibia 50.9286
lfoot -16.9918 11.3371
ltoes -17.2094
379
root 12.2668 16.6201 -3.00469 -19.9821 -77.5734 29.8698
lowerback 25.2875 2.336 -0.412207
upperback 11.806 1.89028 -2.23401
thorax -0.916284 0.630855 -2.64827
lowerneck -2.37259 15.7979 11.8819
upperneck -11.6447 19.9036 -29.3419
head 1.56724 10.3522 -9.8659
rclavicle 4.37326e-015 1.07344e-014
rhumerus -83.0739 -29.852 -19.2797
rradius 12.1945
rwrist 93.3184
rhand -24.567 27.5704
rfingers 7.12502
rthumb 1.92977 -2.40059
lclavicle 4.37326e-015 1.07344e-014
lhumerus -69.1423 1.31657 63.0217
lradius 14.0283
lwrist -52.5791
lhand 4.38763 30.4347
lfingers 7.12502
lthumb 29.7857 58.0606
rfemur -33.1409 6.04474 -4.79013
rtibia 51.6526
rfoot -20.9471 -15.598
rtoes -30.6427
lfemur -34.8778 4.73822 -8.55044
ltibia 50.5294
lfoot -16.6202 11.8399
ltoes -17.8543
380
root 12.2696 16.617 -3.12092 -20.1202 -77.4261 30.0172
lowerback 25.2795 2.46002 -0.696971
upperback 11.8597 1.97984 -2.29345
thorax -0.857321 0.664631 -2.57203
lowerneck -2.42667 15.7935 12.0923
upperneck -11.8353 19.8579 -29.562
head 1.56998 10.334 -9.97402
rclavicle 1.47101e-014 -7.95139e-016
rhumerus -81.8349 -30.0574 -20.4761
rradius 12.3618
rwrist 91.8856
rhand -23.3688 28.4879
rfingers 7.12502
rthumb 3.0869 -1.46951
lclavicle 1.47101e-014 -7.95139e-016
lhumerus -68.8863 0.958464 63.2664
lradius 13.9494
lwrist -52.9813
lhand 4.93509 30.0514
lfingers 7.12502
lthumb 30.3081 57.5824
rfemur -33.6744 5.6585 -4.41242
rtibia 52.4071
rfoot -21.1127 -15.4035
rtoes -29.0047
lfemur -34.7446 4.39263 -8.27398
ltibia 49.9896
lfoot -16.3421 12.0161
ltoes -17.5929
381
root 12.2779 16.6244 -3.23034 -20.6797 -77.0079 30.4423
lowerback 25.619 2.51501 -0.924946
upperback 11.8548 1.97748 -2.45641
thorax -1.02476 0.656983 -2.62967
lowerneck -2.3444 15.8114 12.613
upperneck -11.8106 19.9053 -29.8879
head 1.67978 10.3534 -10.1475
rclavicle 2.14687e-014 3.97569e-014
rhumerus -79.4917 -29.57 -24.3259
rradius 12.542
rwrist 87.9626
rhand -22.2647 29.5638
rfingers 7.12502
rthumb 4.15316 -0.375484
lclavicle 2.14687e-014 3.97569e-014
lhumerus -68.5289 1.14757 61.9243
lradius 13.6217
lwrist -55.0711
lhand 4.88505 29.0194
lfingers 7.12502
lthumb 30.2603 56.5592
rfemur -33.8111 5.04843 -4.23373
rtibia 52.9873
rfoot -21.4429 -14.9829
rtoes -28.4532
lfemur -34.4221 3.7698 -8.15968
ltibia 49.3543
lfoot -15.8902 12.0572
ltoes -16.8948
382
root 12.28 16.6276 -3.33622 -20.5147 -76.3769 30.2036
lowerback 25.7748 2.42248 -0.854781
upperback 11.8636 1.86225 -2.67734
thorax -1.08088 0.610562 -2.88536
lowerneck -2.29418 15.835 13.0896
upperneck -11.7194 19.9752 -29.9729
head 1.77816 10.3747 -10.2306
rclavicle -3.45885e-014 -2.74323e-014
rhumerus -76.9869 -28.7122 -28.9048
rradius 12.7824
rwrist 83.6477
rhand -21.7627 29.3198
rfingers 7.12502
rthumb 4.6379 -0.609417
lclavicle -3.45885e-014 -2.74323e-014
lhumerus -68.0827 1.32853 60.4132
lradius 13.2544
lwrist -56.9777
lhand 3.66184 29.1613
lfingers 7.12502
lthumb 29.0928 56.9091
rfemur -33.7295 4.40725 -4.10581
rtibia 53.3741
rfoot -21.9876 -14.3915
rtoes -27.3592
lfemur -34.2904 3.23708 -8.07005
ltibia 48.7195
lfoot -14.7621 12.4355
ltoes -19.772
